<svg width="16" height="16" viewBox="0 0 16 16" fill="none" xmlns="http://www.w3.org/2000/svg">
<g clip-path="url(#clip0_411_75)">
<path d="M11.742 10.344C12.7103 9.0227 13.144 7.3845 12.9563 5.75716C12.7686 4.12982 11.9734 2.63335 10.7297 1.56714C9.4861 0.50093 7.88573 -0.0563875 6.24882 0.00668566C4.61191 0.0697588 3.05917 0.748571 1.90125 1.90732C0.743334 3.06606 0.0656328 4.61929 0.00373101 6.25624C-0.0581708 7.8932 0.500292 9.49317 1.56739 10.7361C2.63449 11.9789 4.13153 12.7731 5.759 12.9596C7.38648 13.1461 9.02436 12.7112 10.345 11.742H10.344C10.374 11.782 10.406 11.82 10.442 11.857L14.292 15.707C14.4795 15.8946 14.7339 16.0001 14.9991 16.0002C15.2644 16.0003 15.5188 15.895 15.7065 15.7075C15.8941 15.52 15.9996 15.2656 15.9997 15.0004C15.9998 14.7351 15.8945 14.4806 15.707 14.293L11.857 10.443C11.8212 10.4068 11.7828 10.3734 11.742 10.343V10.344ZM12 6.50001C12 7.22228 11.8577 7.93748 11.5813 8.60477C11.3049 9.27206 10.8998 9.87837 10.3891 10.3891C9.87835 10.8998 9.27203 11.3049 8.60474 11.5813C7.93745 11.8577 7.22225 12 6.49998 12C5.77771 12 5.06251 11.8577 4.39522 11.5813C3.72793 11.3049 3.12162 10.8998 2.61089 10.3891C2.10017 9.87837 1.69505 9.27206 1.41864 8.60477C1.14224 7.93748 0.999982 7.22228 0.999982 6.50001C0.999982 5.04132 1.57945 3.64237 2.6109 2.61092C3.64235 1.57947 5.04129 1.00001 6.49998 1.00001C7.95867 1.00001 9.35762 1.57947 10.3891 2.61092C11.4205 3.64237 12 5.04132 12 6.50001Z" fill="white"/>
</g>
<defs>
<clipPath id="clip0_411_75">
<rect width="16" height="16" fill="white"/>
</clipPath>
</defs>
</svg>
