<svg width="16" height="16" viewBox="0 0 16 16" fill="none" xmlns="http://www.w3.org/2000/svg">
<path d="M6.66666 3.55554H10.6667V4.44443H6.66666V3.55554Z" fill="white"/>
<path d="M6.66666 5.33331H10.6667V6.2222H6.66666V5.33331Z" fill="white"/>
<path d="M6.66666 7.11108H10.6667V7.99997H6.66666V7.11108Z" fill="white"/>
<path d="M6.66666 8.88892H10.6667V9.7778H6.66666V8.88892Z" fill="white"/>
<path d="M6.66666 10.6667H10.6667V11.5556H6.66666V10.6667Z" fill="white"/>
<path d="M4.88889 3.55554H5.77777V4.44443H4.88889V3.55554Z" fill="white"/>
<path d="M4.88889 5.33331H5.77777V6.2222H4.88889V5.33331Z" fill="white"/>
<path d="M4.88889 7.11108H5.77777V7.99997H4.88889V7.11108Z" fill="white"/>
<path d="M4.88889 8.88892H5.77777V9.7778H4.88889V8.88892Z" fill="white"/>
<path d="M4.88889 10.6667H5.77777V11.5556H4.88889V10.6667Z" fill="white"/>
<path d="M12.4444 0.888916H3.55555C3.3198 0.888916 3.0937 0.982566 2.92701 1.14927C2.76031 1.31596 2.66666 1.54206 2.66666 1.7778V14.2222C2.66666 14.458 2.76031 14.6841 2.92701 14.8508C3.0937 15.0175 3.3198 15.1111 3.55555 15.1111H12.4444C12.6802 15.1111 12.9063 15.0175 13.073 14.8508C13.2397 14.6841 13.3333 14.458 13.3333 14.2222V1.7778C13.3333 1.54206 13.2397 1.31596 13.073 1.14927C12.9063 0.982566 12.6802 0.888916 12.4444 0.888916ZM12.4444 14.2222H3.55555V1.7778H12.4444V14.2222Z" fill="white"/>
</svg>
