<svg width="170" height="170" viewBox="0 0 170 170" fill="none" xmlns="http://www.w3.org/2000/svg">
<g clip-path="url(#clip0_415_126)">
<path d="M140.25 42.5C143.632 42.5 146.875 43.8433 149.266 46.2344C151.657 48.6255 153 51.8685 153 55.25V68C153 69.1272 152.552 70.2082 151.755 71.0052C150.958 71.8022 149.877 72.25 148.75 72.25C145.368 72.25 142.125 73.5933 139.734 75.9844C137.343 78.3755 136 81.6185 136 85C136 88.3815 137.343 91.6245 139.734 94.0156C142.125 96.4067 145.368 97.75 148.75 97.75C149.877 97.75 150.958 98.1978 151.755 98.9948C152.552 99.7918 153 100.873 153 102V114.75C153 118.132 151.657 121.375 149.266 123.766C146.875 126.157 143.632 127.5 140.25 127.5H29.75C26.3685 127.5 23.1255 126.157 20.7344 123.766C18.3433 121.375 17 118.132 17 114.75V102C17 100.873 17.4478 99.7918 18.2448 98.9948C19.0418 98.1978 20.1228 97.75 21.25 97.75C24.6315 97.75 27.8745 96.4067 30.2656 94.0156C32.6567 91.6245 34 88.3815 34 85C34 81.6185 32.6567 78.3755 30.2656 75.9844C27.8745 73.5933 24.6315 72.25 21.25 72.25C20.1228 72.25 19.0418 71.8022 18.2448 71.0052C17.4478 70.2082 17 69.1272 17 68V55.25C17 51.8685 18.3433 48.6255 20.7344 46.2344C23.1255 43.8433 26.3685 42.5 29.75 42.5H140.25ZM144.5 55.25C144.5 54.1228 144.052 53.0418 143.255 52.2448C142.458 51.4478 141.377 51 140.25 51H29.75C28.6228 51 27.5418 51.4478 26.7448 52.2448C25.9478 53.0418 25.5 54.1228 25.5 55.25V64.175C30.3037 65.1504 34.6225 67.7566 37.7246 71.5519C40.8267 75.3472 42.5213 80.0982 42.5213 85C42.5213 89.9018 40.8267 94.6528 37.7246 98.4481C34.6225 102.243 30.3037 104.85 25.5 105.825V114.75C25.5 115.877 25.9478 116.958 26.7448 117.755C27.5418 118.552 28.6228 119 29.75 119H140.25C141.377 119 142.458 118.552 143.255 117.755C144.052 116.958 144.5 115.877 144.5 114.75V105.825C139.813 104.875 135.584 102.371 132.497 98.7195C129.409 95.0679 127.644 90.4816 127.485 85.7023C127.327 80.9229 128.785 76.2299 131.625 72.382C134.464 68.5342 138.518 65.7564 143.132 64.498L144.5 64.175V55.25Z" fill="#45425A"/>
<path d="M43.0762 148H41.7363L36.2881 139.605H36.2334C36.2471 139.829 36.263 140.084 36.2812 140.371C36.2995 140.654 36.3132 140.957 36.3223 141.28C36.3359 141.599 36.3428 141.925 36.3428 142.258V148H35.2627V138.006H36.5957L42.0234 146.373H42.0713C42.0622 146.214 42.0508 145.988 42.0371 145.696C42.0234 145.4 42.0098 145.083 41.9961 144.746C41.987 144.404 41.9824 144.088 41.9824 143.796V138.006H43.0762V148ZM48.5176 140.371C49.1556 140.371 49.7025 140.512 50.1582 140.795C50.6139 141.077 50.9626 141.474 51.2041 141.984C51.4456 142.49 51.5664 143.083 51.5664 143.762V144.466H46.3916C46.4053 145.345 46.624 146.015 47.0479 146.476C47.4717 146.936 48.0687 147.166 48.8389 147.166C49.3128 147.166 49.7321 147.123 50.0967 147.036C50.4613 146.95 50.8395 146.822 51.2314 146.653V147.651C50.8532 147.82 50.4772 147.943 50.1035 148.021C49.7344 148.098 49.2969 148.137 48.791 148.137C48.071 148.137 47.4421 147.991 46.9043 147.699C46.3711 147.403 45.9564 146.97 45.6602 146.4C45.3639 145.831 45.2158 145.133 45.2158 144.309C45.2158 143.502 45.3503 142.805 45.6191 142.217C45.8926 141.624 46.2754 141.169 46.7676 140.85C47.2643 140.531 47.8477 140.371 48.5176 140.371ZM48.5039 141.301C47.8978 141.301 47.4147 141.499 47.0547 141.896C46.6947 142.292 46.4805 142.846 46.4121 143.557H50.377C50.3724 143.11 50.3018 142.718 50.165 142.381C50.0329 142.039 49.8301 141.775 49.5566 141.588C49.2832 141.396 48.9323 141.301 48.5039 141.301ZM57.042 140.371C57.9307 140.371 58.6029 140.59 59.0586 141.027C59.5143 141.46 59.7422 142.158 59.7422 143.119V148H58.6211V143.194C58.6211 142.57 58.4775 142.103 58.1904 141.793C57.9079 141.483 57.4727 141.328 56.8848 141.328C56.0553 141.328 55.472 141.563 55.1348 142.032C54.7975 142.502 54.6289 143.183 54.6289 144.076V148H53.4941V140.508H54.4102L54.5811 141.588H54.6426C54.8021 141.324 55.0049 141.103 55.251 140.925C55.4971 140.743 55.7728 140.606 56.0781 140.515C56.3835 140.419 56.7048 140.371 57.042 140.371ZM63.2148 137.363V140.542C63.2148 140.724 63.2103 140.909 63.2012 141.096C63.1921 141.278 63.1761 141.447 63.1533 141.602H63.2285C63.3835 141.337 63.5794 141.116 63.8164 140.938C64.0579 140.756 64.3314 140.619 64.6367 140.528C64.9421 140.433 65.2656 140.385 65.6074 140.385C66.209 140.385 66.7103 140.48 67.1113 140.672C67.5169 140.863 67.82 141.16 68.0205 141.561C68.2256 141.962 68.3281 142.481 68.3281 143.119V148H67.207V143.194C67.207 142.57 67.0635 142.103 66.7764 141.793C66.4938 141.483 66.0586 141.328 65.4707 141.328C64.9147 141.328 64.4704 141.435 64.1377 141.649C63.8096 141.859 63.5726 142.169 63.4268 142.579C63.2855 142.989 63.2148 143.491 63.2148 144.083V148H62.0801V137.363H63.2148ZM76.8525 140.508V148H75.9229L75.7588 146.947H75.6973C75.5423 147.207 75.3418 147.426 75.0957 147.604C74.8496 147.781 74.5716 147.913 74.2617 148C73.9564 148.091 73.6305 148.137 73.2842 148.137C72.6917 148.137 72.195 148.041 71.7939 147.85C71.3929 147.658 71.0898 147.362 70.8848 146.961C70.6842 146.56 70.584 146.045 70.584 145.416V140.508H71.7324V145.334C71.7324 145.958 71.8737 146.425 72.1562 146.735C72.4388 147.041 72.8695 147.193 73.4482 147.193C74.0042 147.193 74.4463 147.089 74.7744 146.879C75.1071 146.669 75.3464 146.362 75.4922 145.956C75.638 145.546 75.7109 145.045 75.7109 144.452V140.508H76.8525ZM87.3867 140.371C88.2116 140.371 88.8337 140.588 89.2529 141.021C89.6722 141.449 89.8818 142.139 89.8818 143.092V148H88.7607V143.146C88.7607 142.54 88.6286 142.087 88.3643 141.786C88.1045 141.481 87.7171 141.328 87.2021 141.328C86.4775 141.328 85.9512 141.538 85.623 141.957C85.2949 142.376 85.1309 142.994 85.1309 143.81V148H84.0029V143.146C84.0029 142.741 83.9437 142.404 83.8252 142.135C83.7113 141.866 83.5381 141.665 83.3057 141.533C83.0778 141.396 82.7884 141.328 82.4375 141.328C81.9408 141.328 81.542 141.431 81.2412 141.636C80.9404 141.841 80.7217 142.146 80.585 142.552C80.4528 142.953 80.3867 143.447 80.3867 144.035V148H79.252V140.508H80.168L80.3389 141.567H80.4004C80.5508 141.308 80.7399 141.089 80.9678 140.911C81.1956 140.733 81.4508 140.599 81.7334 140.508C82.016 140.417 82.3167 140.371 82.6357 140.371C83.2054 140.371 83.6816 140.478 84.0645 140.692C84.4518 140.902 84.7321 141.223 84.9053 141.656H84.9668C85.2129 141.223 85.5501 140.902 85.9785 140.692C86.4069 140.478 86.8763 140.371 87.3867 140.371ZM98.2695 147.207C98.4564 147.207 98.6478 147.191 98.8438 147.159C99.0397 147.127 99.1992 147.089 99.3223 147.043V147.925C99.1901 147.984 99.0055 148.034 98.7686 148.075C98.5361 148.116 98.3083 148.137 98.085 148.137C97.6885 148.137 97.3285 148.068 97.0049 147.932C96.6813 147.79 96.4215 147.553 96.2256 147.221C96.0342 146.888 95.9385 146.428 95.9385 145.84V141.396H94.8721V140.843L95.9453 140.398L96.3965 138.771H97.0801V140.508H99.2744V141.396H97.0801V145.806C97.0801 146.275 97.1872 146.626 97.4014 146.858C97.6201 147.091 97.9095 147.207 98.2695 147.207ZM101.975 140.508V148H100.84V140.508H101.975ZM101.421 137.705C101.608 137.705 101.767 137.767 101.899 137.89C102.036 138.008 102.104 138.195 102.104 138.45C102.104 138.701 102.036 138.888 101.899 139.011C101.767 139.134 101.608 139.195 101.421 139.195C101.225 139.195 101.061 139.134 100.929 139.011C100.801 138.888 100.737 138.701 100.737 138.45C100.737 138.195 100.801 138.008 100.929 137.89C101.061 137.767 101.225 137.705 101.421 137.705ZM107.382 148.137C106.707 148.137 106.113 147.998 105.598 147.72C105.083 147.442 104.682 147.018 104.395 146.448C104.107 145.879 103.964 145.161 103.964 144.295C103.964 143.388 104.114 142.647 104.415 142.073C104.72 141.494 105.14 141.066 105.673 140.788C106.206 140.51 106.812 140.371 107.491 140.371C107.865 140.371 108.225 140.41 108.571 140.487C108.922 140.56 109.209 140.654 109.433 140.768L109.091 141.718C108.863 141.627 108.599 141.545 108.298 141.472C108.002 141.399 107.724 141.362 107.464 141.362C106.944 141.362 106.511 141.474 106.165 141.697C105.823 141.921 105.566 142.249 105.393 142.682C105.224 143.115 105.14 143.648 105.14 144.281C105.14 144.887 105.222 145.405 105.386 145.833C105.554 146.261 105.803 146.59 106.131 146.817C106.464 147.041 106.878 147.152 107.375 147.152C107.771 147.152 108.129 147.111 108.448 147.029C108.767 146.943 109.057 146.842 109.316 146.729V147.74C109.066 147.868 108.785 147.966 108.476 148.034C108.17 148.103 107.806 148.137 107.382 148.137ZM112.222 137.363V142.887C112.222 143.069 112.215 143.292 112.201 143.557C112.188 143.816 112.176 144.047 112.167 144.247H112.215C112.311 144.129 112.45 143.953 112.632 143.721C112.819 143.488 112.976 143.301 113.104 143.16L115.592 140.508H116.925L113.91 143.707L117.144 148H115.776L113.131 144.452L112.222 145.286V148H111.094V137.363H112.222ZM121.334 140.371C121.972 140.371 122.519 140.512 122.975 140.795C123.43 141.077 123.779 141.474 124.021 141.984C124.262 142.49 124.383 143.083 124.383 143.762V144.466H119.208C119.222 145.345 119.44 146.015 119.864 146.476C120.288 146.936 120.885 147.166 121.655 147.166C122.129 147.166 122.549 147.123 122.913 147.036C123.278 146.95 123.656 146.822 124.048 146.653V147.651C123.67 147.82 123.294 147.943 122.92 148.021C122.551 148.098 122.113 148.137 121.607 148.137C120.887 148.137 120.258 147.991 119.721 147.699C119.188 147.403 118.773 146.97 118.477 146.4C118.18 145.831 118.032 145.133 118.032 144.309C118.032 143.502 118.167 142.805 118.436 142.217C118.709 141.624 119.092 141.169 119.584 140.85C120.081 140.531 120.664 140.371 121.334 140.371ZM121.32 141.301C120.714 141.301 120.231 141.499 119.871 141.896C119.511 142.292 119.297 142.846 119.229 143.557H123.193C123.189 143.11 123.118 142.718 122.981 142.381C122.849 142.039 122.646 141.775 122.373 141.588C122.1 141.396 121.749 141.301 121.32 141.301ZM128.73 147.207C128.917 147.207 129.109 147.191 129.305 147.159C129.501 147.127 129.66 147.089 129.783 147.043V147.925C129.651 147.984 129.466 148.034 129.229 148.075C128.997 148.116 128.769 148.137 128.546 148.137C128.149 148.137 127.789 148.068 127.466 147.932C127.142 147.79 126.882 147.553 126.687 147.221C126.495 146.888 126.399 146.428 126.399 145.84V141.396H125.333V140.843L126.406 140.398L126.857 138.771H127.541V140.508H129.735V141.396H127.541V145.806C127.541 146.275 127.648 146.626 127.862 146.858C128.081 147.091 128.37 147.207 128.73 147.207ZM49.0576 164.949C49.0576 165.428 48.9368 165.831 48.6953 166.159C48.4583 166.483 48.1165 166.727 47.6699 166.891C47.2279 167.055 46.6992 167.137 46.084 167.137C45.5599 167.137 45.1064 167.096 44.7236 167.014C44.3408 166.932 44.0059 166.815 43.7188 166.665V165.619C44.0241 165.77 44.3887 165.906 44.8125 166.029C45.2363 166.152 45.6693 166.214 46.1113 166.214C46.7585 166.214 47.2279 166.109 47.5195 165.899C47.8112 165.69 47.957 165.405 47.957 165.045C47.957 164.84 47.8978 164.66 47.7793 164.505C47.6654 164.345 47.4717 164.193 47.1982 164.047C46.9248 163.896 46.5465 163.732 46.0635 163.555C45.585 163.372 45.1702 163.192 44.8193 163.015C44.473 162.832 44.2041 162.611 44.0127 162.352C43.8258 162.092 43.7324 161.755 43.7324 161.34C43.7324 160.706 43.9876 160.221 44.498 159.884C45.013 159.542 45.6875 159.371 46.5215 159.371C46.9727 159.371 47.3942 159.417 47.7861 159.508C48.1826 159.594 48.5518 159.713 48.8936 159.863L48.5107 160.772C48.2008 160.64 47.8704 160.529 47.5195 160.438C47.1686 160.346 46.8109 160.301 46.4463 160.301C45.9222 160.301 45.5189 160.387 45.2363 160.561C44.9583 160.734 44.8193 160.971 44.8193 161.271C44.8193 161.504 44.8831 161.695 45.0107 161.846C45.1429 161.996 45.3525 162.137 45.6396 162.27C45.9268 162.402 46.305 162.557 46.7744 162.734C47.2438 162.908 47.6494 163.088 47.9912 163.274C48.333 163.457 48.5951 163.68 48.7773 163.944C48.9642 164.204 49.0576 164.539 49.0576 164.949ZM53.7676 159.371C54.4056 159.371 54.9525 159.512 55.4082 159.795C55.8639 160.077 56.2126 160.474 56.4541 160.984C56.6956 161.49 56.8164 162.083 56.8164 162.762V163.466H51.6416C51.6553 164.345 51.874 165.015 52.2979 165.476C52.7217 165.936 53.3187 166.166 54.0889 166.166C54.5628 166.166 54.9821 166.123 55.3467 166.036C55.7113 165.95 56.0895 165.822 56.4814 165.653V166.651C56.1032 166.82 55.7272 166.943 55.3535 167.021C54.9844 167.098 54.5469 167.137 54.041 167.137C53.321 167.137 52.6921 166.991 52.1543 166.699C51.6211 166.403 51.2064 165.97 50.9102 165.4C50.6139 164.831 50.4658 164.133 50.4658 163.309C50.4658 162.502 50.6003 161.805 50.8691 161.217C51.1426 160.624 51.5254 160.169 52.0176 159.85C52.5143 159.531 53.0977 159.371 53.7676 159.371ZM53.7539 160.301C53.1478 160.301 52.6647 160.499 52.3047 160.896C51.9447 161.292 51.7305 161.846 51.6621 162.557H55.627C55.6224 162.11 55.5518 161.718 55.415 161.381C55.2829 161.039 55.0801 160.775 54.8066 160.588C54.5332 160.396 54.1823 160.301 53.7539 160.301ZM59.8857 167H58.7441V156.363H59.8857V167ZM65.1699 159.371C65.8079 159.371 66.3548 159.512 66.8105 159.795C67.2663 160.077 67.6149 160.474 67.8564 160.984C68.098 161.49 68.2188 162.083 68.2188 162.762V163.466H63.0439C63.0576 164.345 63.2764 165.015 63.7002 165.476C64.124 165.936 64.721 166.166 65.4912 166.166C65.9652 166.166 66.3844 166.123 66.749 166.036C67.1136 165.95 67.4919 165.822 67.8838 165.653V166.651C67.5055 166.82 67.1296 166.943 66.7559 167.021C66.3867 167.098 65.9492 167.137 65.4434 167.137C64.7233 167.137 64.0944 166.991 63.5566 166.699C63.0234 166.403 62.6087 165.97 62.3125 165.4C62.0163 164.831 61.8682 164.133 61.8682 163.309C61.8682 162.502 62.0026 161.805 62.2715 161.217C62.5449 160.624 62.9277 160.169 63.4199 159.85C63.9167 159.531 64.5 159.371 65.1699 159.371ZM65.1562 160.301C64.5501 160.301 64.0671 160.499 63.707 160.896C63.347 161.292 63.1328 161.846 63.0645 162.557H67.0293C67.0247 162.11 66.9541 161.718 66.8174 161.381C66.6852 161.039 66.4824 160.775 66.209 160.588C65.9355 160.396 65.5846 160.301 65.1562 160.301ZM73.1475 167.137C72.473 167.137 71.8783 166.998 71.3633 166.72C70.8483 166.442 70.4473 166.018 70.1602 165.448C69.873 164.879 69.7295 164.161 69.7295 163.295C69.7295 162.388 69.8799 161.647 70.1807 161.073C70.486 160.494 70.9053 160.066 71.4385 159.788C71.9717 159.51 72.5778 159.371 73.2568 159.371C73.6305 159.371 73.9906 159.41 74.3369 159.487C74.6878 159.56 74.9749 159.654 75.1982 159.768L74.8564 160.718C74.6286 160.627 74.3643 160.545 74.0635 160.472C73.7673 160.399 73.4893 160.362 73.2295 160.362C72.71 160.362 72.277 160.474 71.9307 160.697C71.5889 160.921 71.3314 161.249 71.1582 161.682C70.9896 162.115 70.9053 162.648 70.9053 163.281C70.9053 163.887 70.9873 164.405 71.1514 164.833C71.32 165.261 71.5684 165.59 71.8965 165.817C72.2292 166.041 72.6439 166.152 73.1406 166.152C73.5371 166.152 73.8949 166.111 74.2139 166.029C74.5329 165.943 74.8223 165.842 75.082 165.729V166.74C74.8314 166.868 74.5511 166.966 74.2412 167.034C73.9359 167.103 73.5713 167.137 73.1475 167.137ZM77.9941 159.508V167H76.8594V159.508H77.9941ZM77.4404 156.705C77.6273 156.705 77.7868 156.767 77.9189 156.89C78.0557 157.008 78.124 157.195 78.124 157.45C78.124 157.701 78.0557 157.888 77.9189 158.011C77.7868 158.134 77.6273 158.195 77.4404 158.195C77.2445 158.195 77.0804 158.134 76.9482 158.011C76.8206 157.888 76.7568 157.701 76.7568 157.45C76.7568 157.195 76.8206 157.008 76.9482 156.89C77.0804 156.767 77.2445 156.705 77.4404 156.705ZM86.8604 163.24C86.8604 163.855 86.7806 164.405 86.6211 164.888C86.4616 165.371 86.2314 165.779 85.9307 166.111C85.6299 166.444 85.2653 166.699 84.8369 166.877C84.4131 167.05 83.9323 167.137 83.3945 167.137C82.8932 167.137 82.4329 167.05 82.0137 166.877C81.599 166.699 81.2389 166.444 80.9336 166.111C80.6328 165.779 80.3981 165.371 80.2295 164.888C80.0654 164.405 79.9834 163.855 79.9834 163.24C79.9834 162.42 80.1224 161.723 80.4004 161.148C80.6784 160.57 81.0749 160.13 81.5898 159.829C82.1094 159.524 82.7269 159.371 83.4424 159.371C84.126 159.371 84.723 159.524 85.2334 159.829C85.7484 160.134 86.1471 160.576 86.4297 161.155C86.7168 161.729 86.8604 162.424 86.8604 163.24ZM81.1592 163.24C81.1592 163.842 81.2389 164.364 81.3984 164.806C81.5579 165.248 81.804 165.59 82.1367 165.831C82.4694 166.073 82.8978 166.193 83.4219 166.193C83.9414 166.193 84.3675 166.073 84.7002 165.831C85.0374 165.59 85.2858 165.248 85.4453 164.806C85.6048 164.364 85.6846 163.842 85.6846 163.24C85.6846 162.643 85.6048 162.128 85.4453 161.695C85.2858 161.258 85.0397 160.921 84.707 160.684C84.3743 160.447 83.9437 160.328 83.415 160.328C82.6357 160.328 82.0638 160.586 81.6992 161.101C81.3392 161.616 81.1592 162.329 81.1592 163.24ZM92.3701 159.371C93.2588 159.371 93.931 159.59 94.3867 160.027C94.8424 160.46 95.0703 161.158 95.0703 162.119V167H93.9492V162.194C93.9492 161.57 93.8057 161.103 93.5186 160.793C93.236 160.483 92.8008 160.328 92.2129 160.328C91.3835 160.328 90.8001 160.563 90.4629 161.032C90.1257 161.502 89.957 162.183 89.957 163.076V167H88.8223V159.508H89.7383L89.9092 160.588H89.9707C90.1302 160.324 90.333 160.103 90.5791 159.925C90.8252 159.743 91.1009 159.606 91.4062 159.515C91.7116 159.419 92.0329 159.371 92.3701 159.371ZM100.211 159.385C101.104 159.385 101.767 159.585 102.2 159.986C102.633 160.387 102.85 161.028 102.85 161.907V167H102.022L101.804 165.893H101.749C101.539 166.166 101.321 166.396 101.093 166.583C100.865 166.765 100.601 166.904 100.3 167C100.004 167.091 99.639 167.137 99.2061 167.137C98.7503 167.137 98.3447 167.057 97.9893 166.897C97.6383 166.738 97.3604 166.496 97.1553 166.173C96.9548 165.849 96.8545 165.439 96.8545 164.942C96.8545 164.195 97.1507 163.621 97.7432 163.22C98.3356 162.819 99.238 162.6 100.45 162.563L101.742 162.509V162.051C101.742 161.404 101.603 160.95 101.325 160.69C101.047 160.431 100.655 160.301 100.149 160.301C99.7575 160.301 99.3838 160.358 99.0283 160.472C98.6729 160.586 98.3356 160.72 98.0166 160.875L97.668 160.014C98.0052 159.84 98.3926 159.692 98.8301 159.569C99.2676 159.446 99.7279 159.385 100.211 159.385ZM101.729 163.309L100.587 163.356C99.6527 163.393 98.9941 163.546 98.6113 163.814C98.2285 164.083 98.0371 164.464 98.0371 164.956C98.0371 165.384 98.167 165.701 98.4268 165.906C98.6865 166.111 99.0306 166.214 99.459 166.214C100.124 166.214 100.669 166.029 101.093 165.66C101.517 165.291 101.729 164.737 101.729 163.999V163.309ZM107.854 167.137C106.906 167.137 106.154 166.813 105.598 166.166C105.046 165.519 104.771 164.557 104.771 163.281C104.771 161.992 105.053 161.019 105.618 160.362C106.183 159.701 106.935 159.371 107.874 159.371C108.271 159.371 108.617 159.424 108.913 159.528C109.209 159.633 109.465 159.774 109.679 159.952C109.893 160.125 110.073 160.324 110.219 160.547H110.301C110.283 160.406 110.264 160.212 110.246 159.966C110.228 159.72 110.219 159.519 110.219 159.364V156.363H111.354V167H110.438L110.267 165.934H110.219C110.077 166.157 109.897 166.36 109.679 166.542C109.465 166.724 109.207 166.87 108.906 166.979C108.61 167.084 108.259 167.137 107.854 167.137ZM108.031 166.193C108.833 166.193 109.401 165.965 109.733 165.51C110.066 165.054 110.232 164.377 110.232 163.479V163.274C110.232 162.322 110.073 161.59 109.754 161.08C109.439 160.57 108.865 160.314 108.031 160.314C107.334 160.314 106.812 160.583 106.466 161.121C106.119 161.654 105.946 162.383 105.946 163.309C105.946 164.229 106.117 164.94 106.459 165.441C106.805 165.943 107.329 166.193 108.031 166.193ZM120.22 163.24C120.22 163.855 120.14 164.405 119.98 164.888C119.821 165.371 119.591 165.779 119.29 166.111C118.989 166.444 118.625 166.699 118.196 166.877C117.772 167.05 117.292 167.137 116.754 167.137C116.253 167.137 115.792 167.05 115.373 166.877C114.958 166.699 114.598 166.444 114.293 166.111C113.992 165.779 113.757 165.371 113.589 164.888C113.425 164.405 113.343 163.855 113.343 163.24C113.343 162.42 113.482 161.723 113.76 161.148C114.038 160.57 114.434 160.13 114.949 159.829C115.469 159.524 116.086 159.371 116.802 159.371C117.485 159.371 118.082 159.524 118.593 159.829C119.108 160.134 119.507 160.576 119.789 161.155C120.076 161.729 120.22 162.424 120.22 163.24ZM114.519 163.24C114.519 163.842 114.598 164.364 114.758 164.806C114.917 165.248 115.163 165.59 115.496 165.831C115.829 166.073 116.257 166.193 116.781 166.193C117.301 166.193 117.727 166.073 118.06 165.831C118.397 165.59 118.645 165.248 118.805 164.806C118.964 164.364 119.044 163.842 119.044 163.24C119.044 162.643 118.964 162.128 118.805 161.695C118.645 161.258 118.399 160.921 118.066 160.684C117.734 160.447 117.303 160.328 116.774 160.328C115.995 160.328 115.423 160.586 115.059 161.101C114.699 161.616 114.519 162.329 114.519 163.24Z" fill="#45425A"/>
</g>
<defs>
<clipPath id="clip0_415_126">
<rect width="170" height="170" fill="white"/>
</clipPath>
</defs>
</svg>
